<?xml version="1.0" encoding="UTF-8"?>
<svg id="Layer_2" data-name="Layer 2" xmlns="http://www.w3.org/2000/svg" viewBox="0 0 1316.07 231.93" width="1316" height="232">
  <defs>
    <style>
      .cls-1 {
        fill: #001f3e;
      }

      .cls-1, .cls-2 {
        stroke-width: 0px;
      }

      .cls-2 {
        fill: #021f3c;
      }
    </style>
  </defs>
  <g id="Layer_1-2" data-name="Layer 1">
    <g>
      <g>
        <path class="cls-1" d="m285.82,41.37c-34.18,1.59-54.58,20.77-95.07,105.67-.08-.41-.16-.83-.24-1.25-5.44-27.14-22.64-41.48-42.39-52.4,24.22-45.15,37-73.42,68.07-75.15,31.83-1.77,39.77,17.78,39.77,17.78,0,0,19.72-.06,29.87,5.35Z"/>
        <path class="cls-1" d="m181.06,169.04h0c-1.47,9.12-5.51,16.95-11.93,25.82-24.83,34.25-82.08,42.99-141.34,33.47,40.97-8.14,97.41-46.68,89.95-80.43-9.71-43.9-82.76-32.78-83.11-106.94-14.97,71.33,48.82,70.01,68.01,104.02,6.05,10.72-.69,24.15-12.89,25.83-30.08,4.17-63.31-8.65-80.68-39.1C-7.57,102.5-2.56,49.18,34.47,8.55c2.66-2.92,5.48-5.78,8.48-8.55h0c14.7,70.58,64.6,81.22,100.15,100.93,42.89,23.79,39.06,61.29,37.96,68.11Z"/>
      </g>
      <g>
        <path class="cls-2" d="m349.97,121.56h-10.01v-17.96l-16.5-29.75h11.73l9.94,20.81,9.48-20.81h11.27l-15.9,29.75v17.96Z"/>
        <path class="cls-2" d="m391.06,122.88c-6.83,0-12.06-1.86-15.64-5.57-4.84-4.57-7.29-11.07-7.29-19.68s2.45-15.31,7.29-19.68c3.58-3.71,8.81-5.57,15.64-5.57s11.99,1.86,15.57,5.57c4.84,4.37,7.22,10.93,7.22,19.68s-2.39,15.11-7.22,19.68c-3.58,3.71-8.75,5.57-15.57,5.57Zm12.86-25.25c0-5.3-1.19-9.48-3.45-12.39-2.39-2.92-5.5-4.37-9.41-4.37s-7.09,1.46-9.48,4.37-3.51,7.02-3.51,12.39,1.13,9.54,3.51,12.46c2.39,2.92,5.5,4.37,9.48,4.37s7.02-1.46,9.41-4.37c2.25-2.92,3.45-7.09,3.45-12.46Z"/>
        <path class="cls-2" d="m428.84,111.75c1.59,1.92,4.37,2.92,8.28,2.92,2.39,0,4.31-.27,5.77-.8,2.78-.99,4.17-2.85,4.17-5.5,0-1.59-.66-2.78-2.05-3.64s-3.58-1.59-6.56-2.25l-5.04-1.13c-4.9-1.13-8.35-2.32-10.27-3.64-3.18-2.25-4.84-5.63-4.84-10.34,0-4.31,1.59-7.82,4.71-10.67,3.05-2.78,7.62-4.24,13.65-4.24,5.04,0,9.34,1.33,12.86,3.98,3.58,2.72,5.43,6.56,5.57,11.66h-9.54c-.2-2.92-1.46-4.97-3.78-6.16-1.52-.79-3.51-1.19-5.77-1.19-2.58,0-4.64.53-6.16,1.59-1.52.99-2.32,2.45-2.32,4.31,0,1.72.8,2.98,2.32,3.84.93.53,2.98,1.19,6.16,1.99l8.22,1.92c3.65.93,6.36,2.05,8.15,3.51,2.85,2.19,4.31,5.5,4.31,9.74s-1.66,7.95-4.97,10.8c-3.38,2.92-8.08,4.37-14.18,4.37s-11.07-1.46-14.65-4.31c-3.58-2.78-5.3-6.69-5.3-11.66h9.48c.27,2.19.93,3.78,1.79,4.9Z"/>
        <path class="cls-2" d="m472.18,92.07h18.62v-18.22h9.94v47.71h-9.94v-21.27h-18.62v21.27h-9.87v-47.71h9.87v18.22Z"/>
        <path class="cls-2" d="m542.17,113.01v8.55h-33.6v-47.71h10.01v39.17h23.59Z"/>
        <path class="cls-2" d="m578.42,121.56l-3.05-9.81h-17.63l-3.25,9.81h-10.47l17.03-47.71h11.27l16.9,47.71h-10.8Zm-17.96-18.03h12.13l-5.96-18.75-6.16,18.75Z"/>
        <path class="cls-2" d="m629.52,78.42c1.06,1.19,1.86,2.58,2.45,4.04.66,1.46.93,3.11.93,4.97,0,2.32-.6,4.51-1.72,6.69-1.13,2.19-3.05,3.78-5.63,4.64,2.19.86,3.71,2.12,4.64,3.78.93,1.66,1.39,4.11,1.39,7.49v3.18c0,2.19.07,3.64.27,4.44.27,1.19.86,2.12,1.79,2.72v1.19h-10.93c-.33-1.06-.53-1.92-.66-2.58-.27-1.33-.4-2.72-.4-4.11l-.07-4.37c-.07-3.05-.6-5.1-1.66-6.1-1.06-.99-3.11-1.52-6.03-1.52h-10.27v18.69h-9.74v-47.71h23.39c3.31.07,5.9.53,7.69,1.26,1.79.73,3.31,1.86,4.57,3.31Zm-9.61,15.77c1.99-.93,2.98-2.72,2.98-5.37,0-2.92-.99-4.84-2.85-5.83-1.13-.53-2.72-.86-4.9-.86h-11.53v12.86h11.27c2.25,0,3.91-.26,5.04-.79Z"/>
        <path class="cls-2" d="m676.97,121.56h-10.07v-39.23h-14.31v-8.48h38.64v8.48h-14.25v39.23Z"/>
        <path class="cls-2" d="m716.41,121.56l-3.05-9.81h-17.63l-3.25,9.81h-10.47l17.03-47.71h11.27l16.9,47.71h-10.8Zm-17.96-18.03h12.13l-5.96-18.75-6.16,18.75Z"/>
        <path class="cls-2" d="m767.64,80.94c1.66,2.39,2.78,4.97,3.38,7.69.66,2.78.93,5.43.93,7.95,0,6.3-1.26,11.66-3.84,16.1-3.45,5.9-8.75,8.88-15.97,8.88h-20.54v-47.71h20.54c2.98.07,5.43.4,7.42,1.06,3.31,1.13,6.03,3.11,8.08,6.03Zm-7.36,25.38c.99-2.58,1.52-5.57,1.52-9.08,0-4.84-.73-8.62-2.25-11.2-1.52-2.58-4.57-3.91-9.08-3.91h-9.21v31.15h9.21c4.71,0,7.95-2.32,9.81-6.96Z"/>
        <path class="cls-2" d="m815.75,86.24c0,2.92-.73,5.24-2.19,7.02-.8.99-2.05,1.92-3.65,2.72,2.45.86,4.24,2.25,5.57,4.17,1.19,1.92,1.79,4.24,1.79,7.03s-.66,5.37-2.12,7.55c-.93,1.52-2.05,2.78-3.38,3.78-1.52,1.19-3.31,1.99-5.43,2.39-2.05.46-4.37.66-6.76.66h-21.6v-47.71h23.13c5.9.13,10.01,1.79,12.46,5.1,1.46,2.05,2.19,4.44,2.19,7.29Zm-11.46,5.24c1.33-.79,1.92-2.19,1.92-4.17,0-2.25-.86-3.71-2.58-4.37-1.46-.53-3.38-.79-5.7-.79h-10.47v10.54h11.73c2.12,0,3.78-.4,5.1-1.19Zm-.2,20.94c2.05-.99,3.18-2.98,3.18-5.96,0-2.45-1.06-4.17-3.11-5.1-1.13-.46-2.72-.73-4.84-.79h-11.86v12.72h11.73c2.12,0,3.71-.27,4.9-.86Z"/>
        <path class="cls-2" d="m833.12,73.85v47.71h-9.94v-47.71h9.94Z"/>
        <path class="cls-2" d="m876.66,78.42c1.06,1.19,1.86,2.58,2.45,4.04.66,1.46.93,3.11.93,4.97,0,2.32-.6,4.51-1.72,6.69-1.13,2.19-3.05,3.78-5.63,4.64,2.19.86,3.71,2.12,4.64,3.78.93,1.66,1.39,4.11,1.39,7.49v3.18c0,2.19.07,3.64.27,4.44.27,1.19.86,2.12,1.79,2.72v1.19h-10.93c-.33-1.06-.53-1.92-.66-2.58-.27-1.33-.4-2.72-.4-4.11l-.07-4.37c-.07-3.05-.6-5.1-1.66-6.1-1.06-.99-3.11-1.52-6.03-1.52h-10.27v18.69h-9.74v-47.71h23.39c3.31.07,5.9.53,7.69,1.26,1.79.73,3.31,1.86,4.57,3.31Zm-9.61,15.77c1.99-.93,2.98-2.72,2.98-5.37,0-2.92-.99-4.84-2.85-5.83-1.13-.53-2.72-.86-4.9-.86h-11.53v12.86h11.27c2.25,0,3.91-.26,5.04-.79Z"/>
        <path class="cls-2" d="m915.3,73.85h12.92l-19.55,19.68,20.54,28.03h-12.79l-14.78-20.81-4.71,4.84v15.97h-9.81v-47.71h9.81v19.68l18.36-19.68Z"/>
        <path class="cls-2" d="m954.27,122.88c-6.83,0-12.06-1.86-15.64-5.57-4.84-4.57-7.29-11.07-7.29-19.68s2.45-15.31,7.29-19.68c3.58-3.71,8.81-5.57,15.64-5.57s11.99,1.86,15.57,5.57c4.84,4.37,7.22,10.93,7.22,19.68s-2.39,15.11-7.22,19.68c-3.58,3.71-8.75,5.57-15.57,5.57Zm12.86-25.25c0-5.3-1.19-9.48-3.45-12.39-2.39-2.92-5.5-4.37-9.41-4.37s-7.09,1.46-9.48,4.37-3.51,7.02-3.51,12.39,1.13,9.54,3.51,12.46c2.39,2.92,5.5,4.37,9.48,4.37s7.02-1.46,9.41-4.37c2.25-2.92,3.45-7.09,3.45-12.46Z"/>
        <path class="cls-2" d="m1018.95,78.42c1.06,1.19,1.86,2.58,2.45,4.04.66,1.46.93,3.11.93,4.97,0,2.32-.6,4.51-1.72,6.69-1.13,2.19-3.05,3.78-5.63,4.64,2.19.86,3.71,2.12,4.64,3.78.93,1.66,1.39,4.11,1.39,7.49v3.18c0,2.19.07,3.64.27,4.44.27,1.19.86,2.12,1.79,2.72v1.19h-10.93c-.33-1.06-.53-1.92-.66-2.58-.27-1.33-.4-2.72-.4-4.11l-.07-4.37c-.07-3.05-.6-5.1-1.66-6.1-1.06-.99-3.11-1.52-6.03-1.52h-10.27v18.69h-9.74v-47.71h23.39c3.31.07,5.9.53,7.69,1.26,1.79.73,3.31,1.86,4.57,3.31Zm-9.61,15.77c1.99-.93,2.98-2.72,2.98-5.37,0-2.92-.99-4.84-2.85-5.83-1.13-.53-2.72-.86-4.9-.86h-11.53v12.86h11.27c2.25,0,3.91-.26,5.04-.79Z"/>
        <path class="cls-2" d="m1062.83,113.01v8.55h-33.6v-47.71h10.01v39.17h23.59Z"/>
        <path class="cls-2" d="m1077.21,73.85v47.71h-9.94v-47.71h9.94Z"/>
        <path class="cls-2" d="m1111.41,81.93c-1.66-.73-3.51-1.06-5.5-1.06-3.84,0-6.96,1.46-9.48,4.31-2.45,2.92-3.71,7.29-3.71,13.12s1.33,10.01,4.04,12.46c2.65,2.45,5.7,3.64,9.15,3.64s6.03-.99,8.22-2.92c2.12-1.92,3.45-4.44,3.91-7.55h-11v-7.95h19.81v25.58h-6.56l-.99-5.96c-1.92,2.25-3.64,3.84-5.17,4.77-2.65,1.66-5.9,2.45-9.74,2.45-6.3,0-11.46-2.19-15.51-6.56-4.24-4.37-6.3-10.4-6.3-18.09s2.12-13.85,6.36-18.56c4.24-4.64,9.87-6.96,16.83-6.96,6.03,0,10.93,1.52,14.65,4.57,3.64,3.05,5.77,6.96,6.3,11.53h-9.81c-.73-3.25-2.58-5.57-5.5-6.83Z"/>
        <path class="cls-2" d="m1143.88,73.85v47.71h-9.94v-47.71h9.94Z"/>
        <path class="cls-2" d="m1180.8,73.85h9.28v47.71h-9.94l-19.48-33.86v33.86h-9.28v-47.71h10.4l19.02,33.33v-33.33Z"/>
        <path class="cls-2" d="m1206.85,73.85v47.71h-9.94v-47.71h9.94Z"/>
        <path class="cls-2" d="m363.29,157.95c1.06,1.19,1.86,2.58,2.45,4.04.66,1.46.93,3.11.93,4.97,0,2.32-.6,4.51-1.72,6.69-1.13,2.19-3.05,3.78-5.63,4.64,2.19.86,3.71,2.12,4.64,3.78.93,1.66,1.39,4.11,1.39,7.49v3.18c0,2.19.07,3.64.27,4.44.27,1.19.86,2.12,1.79,2.72v1.19h-10.93c-.33-1.06-.53-1.92-.66-2.58-.27-1.33-.4-2.72-.4-4.11l-.07-4.37c-.07-3.05-.6-5.1-1.66-6.1-1.06-.99-3.11-1.52-6.03-1.52h-10.27v18.69h-9.74v-47.71h23.39c3.31.07,5.9.53,7.69,1.26,1.79.73,3.31,1.86,4.57,3.31Zm-9.61,15.77c1.99-.93,2.98-2.72,2.98-5.37,0-2.92-.99-4.84-2.85-5.83-1.13-.53-2.72-.86-4.9-.86h-11.53v12.86h11.27c2.25,0,3.91-.26,5.04-.79Z"/>
        <path class="cls-2" d="m382.71,153.38v47.71h-9.94v-47.71h9.94Z"/>
        <path class="cls-2" d="m402.92,201.09l-16.1-47.71h10.67l10.34,36.25,10.47-36.25h10.34l-16.3,47.71h-9.41Z"/>
        <path class="cls-2" d="m454.02,202.42c-6.83,0-12.06-1.86-15.64-5.57-4.84-4.57-7.29-11.07-7.29-19.68s2.45-15.31,7.29-19.68c3.58-3.71,8.81-5.57,15.64-5.57s11.99,1.86,15.57,5.57c4.84,4.37,7.22,10.93,7.22,19.68s-2.39,15.11-7.22,19.68c-3.58,3.71-8.75,5.57-15.57,5.57Zm12.86-25.25c0-5.3-1.19-9.48-3.45-12.39-2.39-2.92-5.5-4.37-9.41-4.37s-7.09,1.46-9.48,4.37-3.51,7.02-3.51,12.39,1.13,9.54,3.51,12.46c2.39,2.92,5.5,4.37,9.48,4.37s7.02-1.46,9.41-4.37c2.25-2.92,3.45-7.09,3.45-12.46Z"/>
        <path class="cls-2" d="m489.88,191.88c.66,1.52,2.25,2.25,4.57,2.25s3.98-.8,4.71-2.45c.46-.99.66-2.65.66-4.9v-33.4h9.94v33.2c0,4.04-.66,7.29-2.05,9.67-2.39,3.98-6.69,6.03-12.86,6.03s-10.34-1.66-12.46-4.9-3.18-7.69-3.18-13.25v-1.13h9.41v1.13c.13,3.64.46,6.23,1.26,7.75Z"/>
        <path class="cls-2" d="m551.58,192.54v8.55h-33.6v-47.71h10.01v39.17h23.59Z"/>
        <path class="cls-2" d="m587.83,201.09l-3.05-9.81h-17.63l-3.25,9.81h-10.47l17.03-47.71h11.27l16.9,47.71h-10.8Zm-17.96-18.03h12.13l-5.96-18.75-6.16,18.75Z"/>
        <path class="cls-2" d="m632.3,153.38h9.28v47.71h-9.94l-19.48-33.86v33.86h-9.28v-47.71h10.4l19.02,33.33v-33.33Z"/>
        <path class="cls-2" d="m669.62,201.09h-10.07v-39.23h-14.31v-8.48h38.63v8.48h-14.25v39.23Z"/>
        <path class="cls-2" d="m697.19,153.38v47.71h-9.94v-47.71h9.94Z"/>
        <path class="cls-2" d="m740.73,157.95c1.06,1.19,1.86,2.58,2.45,4.04.66,1.46.93,3.11.93,4.97,0,2.32-.6,4.51-1.72,6.69-1.13,2.19-3.05,3.78-5.63,4.64,2.19.86,3.71,2.12,4.64,3.78.93,1.66,1.39,4.11,1.39,7.49v3.18c0,2.19.07,3.64.27,4.44.27,1.19.86,2.12,1.79,2.72v1.19h-10.93c-.33-1.06-.53-1.92-.66-2.58-.27-1.33-.4-2.72-.4-4.11l-.07-4.37c-.07-3.05-.6-5.1-1.66-6.1-1.06-.99-3.11-1.52-6.03-1.52h-10.27v18.69h-9.74v-47.71h23.39c3.31.07,5.9.53,7.69,1.26,1.79.73,3.31,1.86,4.57,3.31Zm-9.61,15.77c1.99-.93,2.98-2.72,2.98-5.37,0-2.92-.99-4.84-2.85-5.83-1.13-.53-2.72-.86-4.9-.86h-11.53v12.86h11.27c2.25,0,3.91-.26,5.04-.79Z"/>
        <path class="cls-2" d="m760.15,153.38v47.71h-9.94v-47.71h9.94Z"/>
        <path class="cls-2" d="m776.78,191.28c1.59,1.92,4.37,2.92,8.28,2.92,2.39,0,4.31-.27,5.77-.8,2.78-.99,4.17-2.85,4.17-5.5,0-1.59-.66-2.78-2.05-3.64s-3.58-1.59-6.56-2.25l-5.04-1.13c-4.9-1.13-8.35-2.32-10.27-3.64-3.18-2.25-4.84-5.63-4.84-10.34,0-4.31,1.59-7.82,4.71-10.67,3.05-2.78,7.62-4.24,13.65-4.24,5.04,0,9.34,1.33,12.86,3.98,3.58,2.72,5.43,6.56,5.57,11.66h-9.54c-.2-2.92-1.46-4.97-3.78-6.16-1.52-.79-3.51-1.19-5.77-1.19-2.58,0-4.64.53-6.16,1.59-1.52.99-2.32,2.45-2.32,4.31,0,1.72.8,2.98,2.32,3.84.93.53,2.98,1.19,6.16,1.99l8.22,1.92c3.65.93,6.36,2.05,8.15,3.51,2.85,2.19,4.31,5.5,4.31,9.74s-1.66,7.95-4.97,10.8c-3.38,2.92-8.08,4.37-14.18,4.37s-11.07-1.46-14.65-4.31c-3.58-2.78-5.3-6.69-5.3-11.66h9.48c.27,2.19.93,3.78,1.79,4.9Z"/>
        <path class="cls-2" d="m820.13,171.6h18.62v-18.22h9.94v47.71h-9.94v-21.27h-18.62v21.27h-9.87v-47.71h9.87v18.22Z"/>
        <path class="cls-2" d="m880.37,191.88c.66,1.52,2.25,2.25,4.57,2.25s3.98-.8,4.71-2.45c.46-.99.66-2.65.66-4.9v-33.4h9.94v33.2c0,4.04-.66,7.29-2.05,9.67-2.39,3.98-6.69,6.03-12.86,6.03s-10.34-1.66-12.46-4.9-3.18-7.69-3.18-13.25v-1.13h9.41v1.13c.13,3.64.46,6.23,1.26,7.75Z"/>
        <path class="cls-2" d="m939.49,201.09l-3.05-9.81h-17.63l-3.25,9.81h-10.47l17.03-47.71h11.27l16.9,47.71h-10.8Zm-17.96-18.03h12.13l-5.96-18.75-6.16,18.75Z"/>
        <path class="cls-2" d="m991.32,201.09v-32.27c0-.93,0-2.25.07-3.91v-3.84l-9.01,40.03h-9.68l-8.95-40.03v3.84c.07,1.66.07,2.98.07,3.91v32.27h-9.28v-47.71h14.45l8.68,37.51,8.61-37.51h14.38v47.71h-9.34Z"/>
        <path class="cls-2" d="m1034.79,161.46c-1.66-.73-3.51-1.06-5.5-1.06-3.84,0-6.96,1.46-9.48,4.31-2.45,2.92-3.71,7.29-3.71,13.12s1.33,10.01,4.04,12.46c2.65,2.45,5.7,3.64,9.15,3.64s6.03-.99,8.22-2.92c2.12-1.92,3.45-4.44,3.91-7.55h-11v-7.95h19.81v25.58h-6.56l-.99-5.96c-1.92,2.25-3.64,3.84-5.17,4.77-2.65,1.66-5.9,2.45-9.74,2.45-6.3,0-11.46-2.19-15.51-6.56-4.24-4.37-6.3-10.4-6.3-18.09s2.12-13.85,6.36-18.56c4.24-4.64,9.87-6.96,16.83-6.96,6.03,0,10.93,1.52,14.65,4.57,3.64,3.05,5.77,6.96,6.3,11.53h-9.81c-.73-3.25-2.58-5.57-5.5-6.83Z"/>
        <path class="cls-2" d="m1056.27,153.38h8.88l-1.66,19.75h-5.57l-1.66-19.75Z"/>
        <path class="cls-2" d="m1103.26,201.09l-3.05-9.81h-17.63l-3.25,9.81h-10.47l17.03-47.71h11.27l16.9,47.71h-10.8Zm-17.96-18.03h12.13l-5.96-18.75-6.16,18.75Z"/>
        <path class="cls-2" d="m1154.35,157.95c1.06,1.19,1.86,2.58,2.45,4.04.66,1.46.93,3.11.93,4.97,0,2.32-.6,4.51-1.72,6.69-1.13,2.19-3.05,3.78-5.63,4.64,2.19.86,3.71,2.12,4.64,3.78.93,1.66,1.39,4.11,1.39,7.49v3.18c0,2.19.07,3.64.27,4.44.27,1.19.86,2.12,1.79,2.72v1.19h-10.93c-.33-1.06-.53-1.92-.66-2.58-.27-1.33-.4-2.72-.4-4.11l-.07-4.37c-.07-3.05-.6-5.1-1.66-6.1-1.06-.99-3.11-1.52-6.03-1.52h-10.27v18.69h-9.74v-47.71h23.39c3.31.07,5.9.53,7.69,1.26,1.79.73,3.31,1.86,4.57,3.31Zm-9.61,15.77c1.99-.93,2.98-2.72,2.98-5.37,0-2.92-.99-4.84-2.85-5.83-1.13-.53-2.72-.86-4.9-.86h-11.53v12.86h11.27c2.25,0,3.91-.26,5.04-.79Z"/>
        <path class="cls-2" d="m1201.28,201.09v-32.27c0-.93,0-2.25.07-3.91v-3.84l-9.01,40.03h-9.68l-8.95-40.03v3.84c.07,1.66.07,2.98.07,3.91v32.27h-9.28v-47.71h14.45l8.68,37.51,8.61-37.51h14.38v47.71h-9.34Z"/>
        <path class="cls-2" d="m1249.19,201.09l-3.05-9.81h-17.63l-3.25,9.81h-10.47l17.03-47.71h11.27l16.9,47.71h-10.8Zm-17.96-18.03h12.13l-5.96-18.75-6.16,18.75Z"/>
        <path class="cls-2" d="m1273.39,191.28c1.59,1.92,4.37,2.92,8.28,2.92,2.39,0,4.31-.27,5.76-.8,2.78-.99,4.18-2.85,4.18-5.5,0-1.59-.66-2.78-2.05-3.64s-3.58-1.59-6.56-2.25l-5.04-1.13c-4.9-1.13-8.35-2.32-10.27-3.64-3.18-2.25-4.84-5.63-4.84-10.34,0-4.31,1.59-7.82,4.71-10.67,3.05-2.78,7.62-4.24,13.65-4.24,5.04,0,9.34,1.33,12.86,3.98,3.58,2.72,5.43,6.56,5.57,11.66h-9.54c-.2-2.92-1.46-4.97-3.78-6.16-1.52-.79-3.51-1.19-5.77-1.19-2.58,0-4.64.53-6.16,1.59-1.52.99-2.32,2.45-2.32,4.31,0,1.72.79,2.98,2.32,3.84.93.53,2.98,1.19,6.16,1.99l8.22,1.92c3.64.93,6.36,2.05,8.15,3.51,2.85,2.19,4.31,5.5,4.31,9.74s-1.66,7.95-4.97,10.8c-3.38,2.92-8.08,4.37-14.18,4.37s-11.07-1.46-14.65-4.31c-3.58-2.78-5.3-6.69-5.3-11.66h9.48c.26,2.19.93,3.78,1.79,4.9Z"/>
        <path class="cls-2" d="m1316.07,153.38v47.71h-9.94v-47.71h9.94Z"/>
      </g>
    </g>
  </g>
</svg>